# xmcd
#
# Track frame offsets: 
#        150
#        25421
#        43827
#        64180
#        83637
#        100729
#        117640
#        137291
#        158273
#        177676
#        192595
#        214502
#        233029
#        255736
#        273041
#        296525
#        315419
#
# Disc length: 4466 seconds
#
# Revision: 3
# Processed by: cddbd v1.5.2PL0 Copyright (c) Steve Scherf et al.
# Submitted via: ExactAudioCopy v1.1
#
DISCID=e9117011
DTITLE=Tina Turner - All The Best [CD 2)
DYEAR=2004
DGENRE=Blues
TTITLE0=In Your Wildest Dreams
TTITLE1=Private Dancer
TTITLE2=Why Must We Wait Until Tonight
TTITLE3=Typical Male
TTITLE4=Tonight (David Bowie with Tina Turner)
TTITLE5=Complicated Disaster
TTITLE6=On Silent Wings
TTITLE7=Something Special
TTITLE8=We Don't Need Another Hero
TTITLE9=It's Only Love (Bryan Adams with Tina Turner)
TTITLE10=Cose Della Vita (Eros Ramazotti with Tina Turner)
TTITLE11=Steamy Windows
TTITLE12=Paradise Is Here
TTITLE13=What's Love Got To Do With It
TTITLE14=Better Be Good To Me
TTITLE15=Two People
TTITLE16=Something Beautiful Remains
EXTD=
EXTT0=
EXTT1=
EXTT2=
EXTT3=
EXTT4=
EXTT5=
EXTT6=
EXTT7=
EXTT8=
EXTT9=
EXTT10=
EXTT11=
EXTT12=
EXTT13=
EXTT14=
EXTT15=
EXTT16=
PLAYORDER=
